<svg width="256" height="256" viewBox="0 0 256 256" fill="none" xmlns="http://www.w3.org/2000/svg">
<path fill-rule="evenodd" clip-rule="evenodd" d="M80 95.9375C44.6875 95.9375 16.125 124.5 16.125 159.812C16.125 195.187 44.6875 223.687 80 223.687H176C211.312 223.687 239.875 195.187 239.875 159.812C239.875 124.5 211.312 95.9375 176 95.9375H80ZM80 111.937H176C202.812 111.937 223.875 133 223.875 159.812C223.875 186.687 202.812 207.687 176 207.687H80C53.1875 207.687 32.125 186.687 32.125 159.812C32.125 133 53.1875 111.937 80 111.937Z" fill="white"/>
<path fill-rule="evenodd" clip-rule="evenodd" d="M64 143.812C59.5625 143.812 56 147.438 56 151.812C56 161.125 62.1875 169.125 70.625 173.062C79.0625 177 88.9375 177 97.375 173.062C105.812 169.125 112 161.125 112 151.812C112 147.438 108.438 143.812 104 143.812C99.5625 143.812 96 147.438 96 151.812C96 154.062 94.5625 156.687 90.625 158.5C86.6875 160.375 81.3125 160.375 77.375 158.5C73.4375 156.687 72 154.062 72 151.812C72 147.438 68.4375 143.812 64 143.812Z" fill="white"/>
<path fill-rule="evenodd" clip-rule="evenodd" d="M151.875 143.812C147.438 143.812 143.875 147.438 143.875 151.812C143.875 161.125 150.063 169.125 158.5 173.062C166.938 177 176.75 177 185.188 173.062C193.688 169.125 199.813 161.125 199.813 151.812C199.813 147.438 196.25 143.812 191.813 143.812C187.438 143.812 183.813 147.438 183.813 151.812C183.813 154.062 182.438 156.687 178.5 158.5C174.563 160.375 169.188 160.375 165.25 158.5C161.313 156.687 159.875 154.062 159.875 151.812C159.875 147.438 156.313 143.812 151.875 143.812Z" fill="white"/>
<path d="M78.75 0.5L9.75 120C5.3125 127.625 8 137.438 15.625 141.812C23.25 146.25 33.0625 143.625 37.5 136L78.5625 64.8125L100.812 103.75C105.188 111.438 114.938 114.125 122.625 109.75C130.312 105.375 132.938 95.625 128.625 87.9375L78.75 0.5Z" fill="white"/>
<path d="M176.375 0.5L126.562 87.9375C122.187 95.625 124.875 105.375 132.5 109.75C140.188 114.125 149.938 111.438 154.312 103.75L176.625 64.8125L217.688 136C222.125 143.625 231.875 146.25 239.5 141.812C247.188 137.438 249.813 127.625 245.375 120L176.375 0.5Z" fill="white"/>
<path fill-rule="evenodd" clip-rule="evenodd" d="M11.3125 118.688C4.12499 130.688 0 144.812 0 159.812C0 203.875 35.9375 239.812 80 239.812H176C220.062 239.812 256 203.875 256 159.812C256 145.125 252 131.188 245 119.25L217.375 135.5C221.563 142.625 224 150.875 224 159.812C224 186.688 202.875 207.812 176 207.812H80C53.125 207.812 32 186.688 32 159.812C32 150.688 34.5 142.312 38.8125 135.125L11.3125 118.688Z" fill="white"/>
</svg>
